<svg width="32" height="32" viewBox="0 0 32 32" fill="none" xmlns="http://www.w3.org/2000/svg">
  <defs>
    <!-- Main gradient matching brand colors -->
    <linearGradient id="favicon-gradient" x1="0" y1="0" x2="32" y2="32" gradientUnits="userSpaceOnUse">
      <stop offset="0%" stop-color="#ffc400"/>
      <stop offset="25%" stop-color="#ff9100"/>
      <stop offset="50%" stop-color="#ff530f"/>
      <stop offset="75%" stop-color="#e62c6d"/>
      <stop offset="100%" stop-color="#b25aff"/>
    </linearGradient>
    
    <!-- Icon gradient -->
    <linearGradient id="icon-gradient" x1="0" y1="0" x2="32" y2="32" gradientUnits="userSpaceOnUse">
      <stop offset="0%" stop-color="#06b6d4"/>
      <stop offset="100%" stop-color="#8b5cf6"/>
    </linearGradient>
  </defs>
  
  <!-- Background with rounded corners -->
  <rect width="32" height="32" rx="8" fill="url(#favicon-gradient)"/>
  
  <!-- Central brain/prompt icon -->
  <g transform="translate(8, 8)">
    <!-- Main brain shape -->
    <path d="M3 4 C3 2.5, 4.5 1, 8 1 C11.5 1, 13 2.5, 13 4 C13 4.8, 12.5 5.5, 12 5.8 C12.5 6.2, 13 6.8, 13 8 C13 9.5, 11.5 11, 8 11 C4.5 11, 3 9.5, 3 8 C3 6.8, 3.5 6.2, 4 5.8 C3.5 5.5, 3 4.8, 3 4 Z" fill="white" opacity="0.95"/>
    
    <!-- Craft sparks around the brain -->
    <circle cx="1" cy="2" r="0.8" fill="white" opacity="0.8"/>
    <circle cx="15" cy="3" r="0.6" fill="white" opacity="0.7"/>
    <circle cx="14" cy="9" r="0.7" fill="white" opacity="0.75"/>
    <circle cx="2" cy="10" r="0.5" fill="white" opacity="0.6"/>
    
    <!-- Small central dot -->
    <circle cx="8" cy="6" r="1" fill="url(#icon-gradient)" opacity="0.3"/>
  </g>
</svg>