<svg width="32" height="32" viewBox="0 0 32 32" fill="none" xmlns="http://www.w3.org/2000/svg">
  <rect width="32" height="32" rx="8" fill="url(#favicon-gradient)"/>
  <path d="M8 12c0-1.5 1-3 3-3s3 1.5 3 3v2c0 1-1 2-2 2s-2-1-2-2v-2z" fill="white" opacity="0.9"/>
  <path d="M16 10c0-1.5 1-3 3-3s3 1.5 3 3v3c0 1-1 2-2 2s-2-1-2-2v-3z" fill="white" opacity="0.9"/>
  <path d="M10 18c0 1.5 1 3 3 3s3-1.5 3-3v-2c0-1-1-2-2-2s-2 1-2 2v2z" fill="white" opacity="0.9"/>
  <path d="M18 20c0 1.5 1 3 3 3s3-1.5 3-3v-3c0-1-1-2-2-2s-2 1-2 2v3z" fill="white" opacity="0.9"/>
  <circle cx="16" cy="16" r="2" fill="white"/>
  <defs>
    <linearGradient id="favicon-gradient" x1="0" y1="0" x2="32" y2="32" gradientUnits="userSpaceOnUse">
      <stop stop-color="#f59e0b"/>
      <stop offset="0.5" stop-color="#f97316"/>
      <stop offset="1" stop-color="#ef4444"/>
    </linearGradient>
  </defs>
</svg>
